<svg width="163" height="42" viewBox="0 0 163 42" fill="none" xmlns="http://www.w3.org/2000/svg">
<rect width="163" height="42" rx="16" fill="white" fill-opacity="0.19"/>
<path d="M27.61 31.024C26.49 31.024 25.461 30.842 24.523 30.478C23.585 30.114 22.766 29.596 22.066 28.924C21.366 28.266 20.82 27.489 20.428 26.593C20.05 25.697 19.861 24.717 19.861 23.653C19.861 22.533 20.05 21.497 20.428 20.545C20.82 19.579 21.366 18.746 22.066 18.046C22.766 17.332 23.585 16.779 24.523 16.387C25.461 15.995 26.49 15.799 27.61 15.799C28.618 15.799 29.549 15.96 30.403 16.282C31.257 16.604 32.006 17.059 32.65 17.647C33.294 18.221 33.798 18.9 34.162 19.684C34.526 20.454 34.708 21.294 34.708 22.204C34.708 23.128 34.54 23.954 34.204 24.682C33.868 25.396 33.399 25.956 32.797 26.362C32.195 26.768 31.509 26.971 30.739 26.971C29.717 26.971 29.003 26.684 28.597 26.11C28.275 26.39 27.925 26.607 27.547 26.761C27.169 26.915 26.784 26.992 26.392 26.992C25.818 26.992 25.3 26.845 24.838 26.551C24.376 26.257 24.012 25.865 23.746 25.375C23.48 24.885 23.347 24.339 23.347 23.737C23.347 23.023 23.508 22.379 23.83 21.805C24.166 21.217 24.614 20.755 25.174 20.419C25.748 20.083 26.378 19.915 27.064 19.915C27.834 19.915 28.485 20.146 29.017 20.608L29.101 20.188H30.991L30.088 24.451C30.018 24.829 30.06 25.123 30.214 25.333C30.382 25.529 30.648 25.627 31.012 25.627C31.446 25.627 31.831 25.487 32.167 25.207C32.517 24.913 32.783 24.521 32.965 24.031C33.161 23.527 33.259 22.953 33.259 22.309C33.259 21.301 33.007 20.398 32.503 19.6C32.013 18.802 31.334 18.172 30.466 17.71C29.612 17.248 28.639 17.017 27.547 17.017C26.665 17.017 25.839 17.185 25.069 17.521C24.313 17.843 23.648 18.305 23.074 18.907C22.514 19.495 22.073 20.188 21.751 20.986C21.443 21.77 21.289 22.624 21.289 23.548C21.289 24.752 21.555 25.816 22.087 26.74C22.619 27.664 23.361 28.385 24.313 28.903C25.279 29.435 26.378 29.701 27.61 29.701C28.884 29.701 30.039 29.442 31.075 28.924L31.6 30.1C30.956 30.408 30.305 30.639 29.647 30.793C28.989 30.947 28.31 31.024 27.61 31.024ZM26.833 25.438C27.365 25.438 27.834 25.256 28.24 24.892C28.24 24.78 28.24 24.668 28.24 24.556C28.254 24.444 28.275 24.325 28.303 24.199L28.681 22.246C28.513 22.008 28.296 21.826 28.03 21.7C27.764 21.56 27.456 21.49 27.106 21.49C26.756 21.49 26.427 21.588 26.119 21.784C25.825 21.966 25.587 22.218 25.405 22.54C25.237 22.848 25.153 23.198 25.153 23.59C25.153 24.122 25.314 24.563 25.636 24.913C25.958 25.263 26.357 25.438 26.833 25.438ZM38.1382 28V19.453H35.7022V17.059H38.1382V16.009C38.1382 14.777 38.4952 13.839 39.2092 13.195C39.9232 12.537 40.9522 12.208 42.2962 12.208C42.5902 12.208 42.8912 12.222 43.1992 12.25C43.5072 12.278 43.7732 12.327 43.9972 12.397V14.812C43.7312 14.756 43.5002 14.714 43.3042 14.686C43.1082 14.658 42.8912 14.644 42.6532 14.644C42.1072 14.644 41.6942 14.763 41.4142 15.001C41.1482 15.225 41.0152 15.582 41.0152 16.072V17.059H43.9972V19.453H41.0152V28H38.1382ZM45.5022 28V17.059H48.3792V18.277C48.7292 17.801 49.1492 17.437 49.6392 17.185C50.1292 16.933 50.6822 16.807 51.2982 16.807C51.8302 16.821 52.2292 16.905 52.4952 17.059V19.579C52.2852 19.481 52.0542 19.411 51.8022 19.369C51.5502 19.313 51.2912 19.285 51.0252 19.285C50.4652 19.285 49.9542 19.425 49.4922 19.705C49.0302 19.985 48.6592 20.384 48.3792 20.902V28H45.5022ZM54.0744 28V17.059H56.9514V28H54.0744ZM55.5024 15.757C55.0544 15.757 54.6694 15.596 54.3474 15.274C54.0254 14.952 53.8644 14.567 53.8644 14.119C53.8644 13.657 54.0254 13.272 54.3474 12.964C54.6694 12.642 55.0544 12.481 55.5024 12.481C55.9644 12.481 56.3494 12.642 56.6574 12.964C56.9794 13.272 57.1404 13.657 57.1404 14.119C57.1404 14.567 56.9794 14.952 56.6574 15.274C56.3494 15.596 55.9644 15.757 55.5024 15.757ZM64.5564 28.21C63.4644 28.21 62.4704 27.958 61.5744 27.454C60.6924 26.95 59.9924 26.271 59.4744 25.417C58.9564 24.563 58.6974 23.604 58.6974 22.54C58.6974 21.476 58.9424 20.517 59.4324 19.663C59.9364 18.809 60.6154 18.13 61.4694 17.626C62.3234 17.122 63.2754 16.87 64.3254 16.87C65.3754 16.87 66.3064 17.129 67.1184 17.647C67.9304 18.165 68.5674 18.865 69.0294 19.747C69.5054 20.629 69.7434 21.63 69.7434 22.75V23.506H61.6374C61.7634 23.94 61.9664 24.332 62.2464 24.682C62.5404 25.032 62.8974 25.305 63.3174 25.501C63.7514 25.697 64.2134 25.795 64.7034 25.795C65.1934 25.795 65.6414 25.718 66.0474 25.564C66.4674 25.41 66.8244 25.193 67.1184 24.913L69.0084 26.635C68.3364 27.181 67.6434 27.58 66.9294 27.832C66.2294 28.084 65.4384 28.21 64.5564 28.21ZM61.5954 21.448H66.9084C66.8104 21.014 66.6284 20.636 66.3624 20.314C66.1104 19.978 65.8024 19.719 65.4384 19.537C65.0884 19.341 64.6964 19.243 64.2624 19.243C63.8144 19.243 63.4084 19.334 63.0444 19.516C62.6804 19.698 62.3724 19.957 62.1204 20.293C61.8824 20.615 61.7074 21 61.5954 21.448ZM71.5061 28V17.059H74.3831V17.962C75.2091 17.22 76.2311 16.849 77.4491 16.849C78.3031 16.849 79.0521 17.038 79.6961 17.416C80.3541 17.78 80.8651 18.291 81.2291 18.949C81.5931 19.593 81.7751 20.349 81.7751 21.217V28H78.8981V21.637C78.8981 20.923 78.6951 20.363 78.2891 19.957C77.8831 19.537 77.3301 19.327 76.6301 19.327C76.1401 19.327 75.7061 19.425 75.3281 19.621C74.9501 19.803 74.6351 20.069 74.3831 20.419V28H71.5061ZM89.0153 28.147C87.9793 28.147 87.0413 27.895 86.2013 27.391C85.3613 26.887 84.6893 26.215 84.1853 25.375C83.6953 24.521 83.4503 23.569 83.4503 22.519C83.4503 21.469 83.6953 20.524 84.1853 19.684C84.6893 18.83 85.3683 18.158 86.2223 17.668C87.0763 17.164 88.0353 16.912 89.0993 16.912C89.6453 16.912 90.1703 16.989 90.6743 17.143C91.1783 17.283 91.6473 17.493 92.0813 17.773V13.3L94.9583 12.817V28H92.1233V27.097C91.2273 27.797 90.1913 28.147 89.0153 28.147ZM89.4773 25.69C90.0093 25.69 90.4923 25.606 90.9263 25.438C91.3743 25.256 91.7593 24.99 92.0813 24.64V20.377C91.7593 20.055 91.3743 19.803 90.9263 19.621C90.4783 19.439 89.9953 19.348 89.4773 19.348C88.8753 19.348 88.3293 19.488 87.8393 19.768C87.3633 20.034 86.9853 20.412 86.7053 20.902C86.4253 21.378 86.2853 21.917 86.2853 22.519C86.2853 23.121 86.4253 23.66 86.7053 24.136C86.9853 24.612 87.3633 24.99 87.8393 25.27C88.3293 25.55 88.8753 25.69 89.4773 25.69ZM102.431 28.21C101.353 28.21 100.38 27.965 99.5124 27.475C98.6444 26.971 97.9584 26.292 97.4544 25.438C96.9504 24.57 96.6984 23.604 96.6984 22.54C96.6984 21.462 96.9504 20.496 97.4544 19.642C97.9584 18.788 98.6444 18.109 99.5124 17.605C100.38 17.101 101.353 16.849 102.431 16.849C103.299 16.849 104.125 17.017 104.909 17.353C105.707 17.689 106.393 18.172 106.967 18.802L105.203 20.671C104.797 20.223 104.37 19.894 103.922 19.684C103.488 19.46 103.012 19.348 102.494 19.348C101.934 19.348 101.43 19.488 100.982 19.768C100.548 20.048 100.198 20.426 99.9324 20.902C99.6804 21.378 99.5544 21.924 99.5544 22.54C99.5544 23.128 99.6804 23.667 99.9324 24.157C100.198 24.633 100.562 25.011 101.024 25.291C101.486 25.557 101.997 25.69 102.557 25.69C103.047 25.69 103.502 25.592 103.922 25.396C104.356 25.186 104.769 24.878 105.161 24.472L106.883 26.278C106.323 26.88 105.651 27.356 104.867 27.706C104.083 28.042 103.271 28.21 102.431 28.21ZM113.406 28.21C112.314 28.21 111.327 27.958 110.445 27.454C109.563 26.95 108.863 26.271 108.345 25.417C107.827 24.563 107.568 23.604 107.568 22.54C107.568 21.476 107.82 20.517 108.323 19.663C108.842 18.795 109.542 18.109 110.424 17.605C111.32 17.101 112.314 16.849 113.406 16.849C114.498 16.849 115.485 17.101 116.367 17.605C117.263 18.109 117.963 18.795 118.467 19.663C118.985 20.517 119.244 21.476 119.244 22.54C119.244 23.604 118.985 24.563 118.467 25.417C117.963 26.271 117.27 26.95 116.388 27.454C115.506 27.958 114.512 28.21 113.406 28.21ZM113.406 25.711C113.98 25.711 114.491 25.571 114.939 25.291C115.401 25.011 115.765 24.633 116.031 24.157C116.311 23.667 116.451 23.128 116.451 22.54C116.451 21.938 116.311 21.399 116.031 20.923C115.765 20.447 115.401 20.069 114.939 19.789C114.491 19.495 113.98 19.348 113.406 19.348C112.846 19.348 112.335 19.495 111.873 19.789C111.411 20.069 111.047 20.447 110.781 20.923C110.515 21.399 110.382 21.938 110.382 22.54C110.382 23.128 110.515 23.667 110.781 24.157C111.047 24.633 111.411 25.011 111.873 25.291C112.335 25.571 112.846 25.711 113.406 25.711ZM121.012 28V17.059H123.889V18.277C124.239 17.801 124.659 17.437 125.149 17.185C125.639 16.933 126.192 16.807 126.808 16.807C127.34 16.821 127.739 16.905 128.005 17.059V19.579C127.795 19.481 127.564 19.411 127.312 19.369C127.06 19.313 126.801 19.285 126.535 19.285C125.975 19.285 125.464 19.425 125.002 19.705C124.54 19.985 124.169 20.384 123.889 20.902V28H121.012ZM134.215 28.147C133.179 28.147 132.241 27.895 131.401 27.391C130.561 26.887 129.889 26.215 129.385 25.375C128.895 24.521 128.65 23.569 128.65 22.519C128.65 21.469 128.895 20.524 129.385 19.684C129.889 18.83 130.568 18.158 131.422 17.668C132.276 17.164 133.235 16.912 134.299 16.912C134.845 16.912 135.37 16.989 135.874 17.143C136.378 17.283 136.847 17.493 137.281 17.773V13.3L140.158 12.817V28H137.323V27.097C136.427 27.797 135.391 28.147 134.215 28.147ZM134.677 25.69C135.209 25.69 135.692 25.606 136.126 25.438C136.574 25.256 136.959 24.99 137.281 24.64V20.377C136.959 20.055 136.574 19.803 136.126 19.621C135.678 19.439 135.195 19.348 134.677 19.348C134.075 19.348 133.529 19.488 133.039 19.768C132.563 20.034 132.185 20.412 131.905 20.902C131.625 21.378 131.485 21.917 131.485 22.519C131.485 23.121 131.625 23.66 131.905 24.136C132.185 24.612 132.563 24.99 133.039 25.27C133.529 25.55 134.075 25.69 134.677 25.69Z" fill="white"/>
</svg>
