<svg width="373" height="125" viewBox="0 0 373 125" fill="none" xmlns="http://www.w3.org/2000/svg">
<path d="M62.3292 6.59016C58.638 7.50336 56.1072 9.28656 54.1584 12.2722C53.0388 14.0146 52.6656 14.305 51.1716 14.4706C50.2176 14.5954 42.1296 14.8858 33.1704 15.1342C21.6816 15.4246 16.662 15.715 16.0812 16.0882C15.6252 16.3366 15.0444 17.167 14.7948 17.9134C14.256 19.573 14.9604 21.3142 16.4952 22.0198C17.1168 22.3102 23.3808 22.8082 31.6344 23.1814C39.3912 23.5546 47.3124 23.9698 49.2624 24.0946L52.788 24.343L53.4936 25.8778C54.1992 27.3706 54.1992 27.4546 52.374 34.1314C51.3372 37.8226 50.508 40.8922 50.508 40.975C50.508 41.017 48.9732 41.0578 47.1072 41.0578C38.4384 41.0998 34.332 45.247 32.1756 56.197C31.4292 60.013 31.2636 62.419 31.2216 68.2258V75.4846L34.2912 83.365C39.2268 96.0982 39.8076 97.9654 39.5172 100.37C39.102 103.688 37.692 110.781 36.3648 116.007C35.7012 118.662 35.1624 121.193 35.1624 121.649C35.1624 123.391 38.1492 124.553 39.2688 123.224C39.8496 122.519 42.7524 111.155 43.6236 106.177C43.9968 104.103 44.2872 101.117 44.2872 99.457C44.2872 96.3466 44.4528 96.8854 37.5684 77.3494L35.868 72.5794L36.1164 66.7726C36.3648 61.2562 37.4856 54.1222 38.5224 51.4258C39.3936 49.2694 41.0112 47.4442 42.7944 46.6138C44.8272 45.7018 48.8496 45.535 48.8496 46.3654C48.8496 47.029 45.0756 60.0946 44.1216 62.791C43.7484 63.7858 43.458 65.0302 43.458 65.5282C43.458 67.519 46.4028 68.5978 47.6892 67.063C48.8088 65.7766 49.68 62.9146 55.9428 40.2682C59.3436 27.949 62.4132 17.5798 62.7864 17.1658C63.7812 16.0462 65.9388 15.4654 67.1832 15.9214C68.6352 16.4602 70.0032 18.3274 70.0032 19.7794C70.0032 20.443 67.6812 29.5678 64.818 40.1038C61.956 50.6386 59.6328 59.7646 59.6328 60.3442C59.6328 60.9658 59.9232 61.7134 60.2544 62.0038C61.0836 62.7094 62.868 62.6674 63.6144 61.9618C63.9048 61.6306 65.3148 57.2746 66.642 52.2562C68.7156 44.6242 69.2964 42.9658 70.2084 42.1774C72.4488 40.2694 76.3476 41.4718 76.8444 44.293C77.01 45.1642 76.4712 48.109 75.2268 53.1694C74.19 57.2758 73.3188 61.0918 73.3188 61.5478C73.3188 62.7502 75.0192 63.787 76.4292 63.4138C77.7564 63.0826 77.7564 63.0826 79.914 54.745C81.2832 49.477 81.8628 47.9014 82.6932 47.155C84.0624 45.9514 86.5092 45.9106 87.9612 47.0722C89.7444 48.4822 89.7444 50.0998 88.086 55.9486C86.304 62.1694 86.22 63.4138 87.5892 64.285C88.3776 64.8238 88.7508 64.8238 89.6208 64.4506C90.492 64.0774 90.948 63.2062 92.0676 59.7634C93.3528 55.8226 93.5196 55.5322 95.0124 54.7858C96.4224 54.1222 96.7548 54.0802 98.1228 54.6202C99.2016 54.9934 99.8652 55.615 100.446 56.7358L101.192 58.3114L95.304 79.3414C91.9032 91.4938 88.8336 101.657 88.0044 103.398C87.258 105.057 85.806 107.339 84.8112 108.458C82.7376 110.78 78.2988 119.45 78.2988 121.233C78.2988 123.183 80.3724 124.469 81.9492 123.432C82.2396 123.266 83.5668 120.86 84.936 118.081C86.2632 115.344 88.0884 112.274 88.9596 111.278C92.61 107.255 93.2724 105.431 99.9096 80.875C103.477 67.6438 105.385 59.8462 105.385 58.5598C105.344 55.9054 103.81 53.0014 101.611 51.4666C100.201 50.4718 99.288 50.1814 96.924 50.0146L93.9372 49.7662L93.3564 47.8162C92.1948 43.7098 88.6284 41.5114 83.8164 41.8018L80.8308 41.9674L79.794 40.3906C78.3 38.1514 75.522 36.6574 72.7008 36.5746C71.4564 36.5326 70.4196 36.409 70.4196 36.367C70.4196 36.2842 70.71 35.2474 71.0832 34.0858C71.5812 32.3854 72.078 31.639 73.4472 30.685C79.0056 26.6206 80.664 19.4866 77.3868 13.4302C74.5248 8.00017 68.136 5.09736 62.3292 6.59016ZM68.8836 9.90817C74.9808 12.1066 77.6772 19.6966 74.2344 25.0054C73.3224 26.3746 73.2384 25.9186 73.944 23.5954C75.2304 19.3642 74.4 15.673 71.538 13.1842C69.588 11.4838 67.5564 10.861 64.6116 11.0686C60.4224 11.359 57.8508 13.723 56.5236 18.451C55.5288 21.8518 55.4868 22.0186 55.1544 21.5206C54.9888 21.2302 49.0572 20.815 39.102 20.359C23.1336 19.6534 17.5752 19.3222 17.8656 19.0318C17.9484 18.949 26.3688 18.5758 36.6132 18.2434C46.8576 17.8702 55.278 17.5378 55.278 17.497C55.32 17.455 55.8588 16.3774 56.4396 15.0502C58.68 10.4062 64.0308 8.20777 68.8836 9.90817Z" fill="white"/>
<g filter="url(#filter0_b_91_73)">
<path d="M160 29C160 22.3726 165.373 17 172 17H347C353.627 17 359 22.3726 359 29V78C359 84.6274 353.627 90 347 90H172C165.373 90 160 84.6274 160 78V29Z" fill="white" fill-opacity="0.23"/>
<path d="M142.05 55.9998L160.085 43.0693L159.999 69.0499L142.05 55.9998Z" fill="white" fill-opacity="0.23"/>
</g>
<circle cx="354" cy="20" r="13" fill="#5865F2"/>
<path d="M354 32.8031C361.071 32.8031 366.803 27.071 366.803 20.0001C366.803 12.9291 361.071 7.19702 354 7.19702C346.929 7.19702 341.197 12.9291 341.197 20.0001C341.197 27.071 346.929 32.8031 354 32.8031Z" stroke="white" stroke-width="2" stroke-linecap="round" stroke-linejoin="round"/>
<path d="M354 25.1212V20" stroke="white" stroke-width="2" stroke-linecap="round" stroke-linejoin="round"/>
<path d="M354 14.8787H354.012" stroke="white" stroke-width="2" stroke-linecap="round" stroke-linejoin="round"/>
<path d="M187.008 48.16C186.101 48.16 185.216 47.9947 184.352 47.664C183.488 47.3227 182.72 46.8427 182.048 46.224L183.376 44.56C184.027 45.136 184.651 45.552 185.248 45.808C185.856 46.064 186.496 46.192 187.168 46.192C187.637 46.192 188.043 46.1387 188.384 46.032C188.725 45.9147 188.987 45.7493 189.168 45.536C189.36 45.3227 189.456 45.072 189.456 44.784C189.456 44.4 189.317 44.1067 189.04 43.904C188.763 43.6907 188.288 43.5253 187.616 43.408L185.392 43.024C184.443 42.864 183.717 42.528 183.216 42.016C182.725 41.504 182.48 40.8427 182.48 40.032C182.48 39.3387 182.656 38.736 183.008 38.224C183.371 37.712 183.877 37.3227 184.528 37.056C185.189 36.7787 185.973 36.64 186.88 36.64C187.701 36.64 188.517 36.7787 189.328 37.056C190.149 37.3333 190.875 37.7173 191.504 38.208L190.256 39.936C189.083 39.04 187.904 38.592 186.72 38.592C186.304 38.592 185.941 38.6453 185.632 38.752C185.323 38.8587 185.083 39.008 184.912 39.2C184.752 39.3813 184.672 39.6 184.672 39.856C184.672 40.1973 184.795 40.464 185.04 40.656C185.285 40.8373 185.696 40.976 186.272 41.072L188.384 41.424C189.504 41.6053 190.341 41.9627 190.896 42.496C191.451 43.0187 191.728 43.712 191.728 44.576C191.728 45.3013 191.536 45.936 191.152 46.48C190.768 47.0133 190.219 47.4293 189.504 47.728C188.8 48.016 187.968 48.16 187.008 48.16ZM194.307 48L192.019 39.664H194.099L195.475 45.04L197.139 39.664H198.979L200.627 45.056L202.003 39.664H204.051L201.747 48H199.651L198.035 42.672L196.419 48H194.307ZM205.083 48V39.664H207.275V48H205.083ZM206.171 38.672C205.829 38.672 205.536 38.5493 205.291 38.304C205.045 38.0587 204.923 37.7653 204.923 37.424C204.923 37.072 205.045 36.7787 205.291 36.544C205.536 36.2987 205.829 36.176 206.171 36.176C206.523 36.176 206.816 36.2987 207.051 36.544C207.296 36.7787 207.419 37.072 207.419 37.424C207.419 37.7653 207.296 38.0587 207.051 38.304C206.816 38.5493 206.523 38.672 206.171 38.672ZM208.989 51.264V39.664H211.149V40.352C211.832 39.8187 212.621 39.552 213.517 39.552C214.306 39.552 215.021 39.744 215.661 40.128C216.301 40.512 216.808 41.0293 217.181 41.68C217.565 42.32 217.757 43.04 217.757 43.84C217.757 44.64 217.565 45.3653 217.181 46.016C216.797 46.656 216.28 47.168 215.629 47.552C214.978 47.9253 214.253 48.112 213.453 48.112C213.037 48.112 212.637 48.0587 212.253 47.952C211.869 47.8347 211.512 47.6693 211.181 47.456V51.264H208.989ZM213.165 46.256C213.624 46.256 214.034 46.1493 214.397 45.936C214.77 45.7227 215.064 45.4347 215.277 45.072C215.49 44.7093 215.597 44.2987 215.597 43.84C215.597 43.3813 215.49 42.9707 215.277 42.608C215.064 42.2347 214.77 41.9467 214.397 41.744C214.034 41.5307 213.624 41.424 213.165 41.424C212.76 41.424 212.386 41.4933 212.045 41.632C211.714 41.76 211.426 41.9573 211.181 42.224V45.472C211.416 45.7173 211.704 45.9093 212.045 46.048C212.397 46.1867 212.77 46.256 213.165 46.256ZM223.163 48.16C222.331 48.16 221.573 47.968 220.891 47.584C220.219 47.2 219.685 46.6827 219.291 46.032C218.896 45.3813 218.699 44.6507 218.699 43.84C218.699 43.0293 218.885 42.2987 219.259 41.648C219.643 40.9973 220.16 40.48 220.811 40.096C221.461 39.712 222.187 39.52 222.987 39.52C223.787 39.52 224.496 39.7173 225.115 40.112C225.733 40.5067 226.219 41.04 226.571 41.712C226.933 42.384 227.115 43.1467 227.115 44V44.576H220.939C221.035 44.9067 221.189 45.2053 221.403 45.472C221.627 45.7387 221.899 45.9467 222.219 46.096C222.549 46.2453 222.901 46.32 223.275 46.32C223.648 46.32 223.989 46.2613 224.299 46.144C224.619 46.0267 224.891 45.8613 225.115 45.648L226.555 46.96C226.043 47.376 225.515 47.68 224.971 47.872C224.437 48.064 223.835 48.16 223.163 48.16ZM220.907 43.008H224.955C224.88 42.6773 224.741 42.3893 224.539 42.144C224.347 41.888 224.112 41.6907 223.835 41.552C223.568 41.4027 223.269 41.328 222.939 41.328C222.597 41.328 222.288 41.3973 222.011 41.536C221.733 41.6747 221.499 41.872 221.307 42.128C221.125 42.3733 220.992 42.6667 220.907 43.008ZM231.677 48V39.664H233.869V40.592C234.135 40.2293 234.455 39.952 234.829 39.76C235.202 39.568 235.623 39.472 236.093 39.472C236.498 39.4827 236.802 39.5467 237.005 39.664V41.584C236.845 41.5093 236.669 41.456 236.477 41.424C236.285 41.3813 236.087 41.36 235.885 41.36C235.458 41.36 235.069 41.4667 234.717 41.68C234.365 41.8933 234.082 42.1973 233.869 42.592V48H231.677ZM238.208 48V39.664H240.4V48H238.208ZM239.296 38.672C238.954 38.672 238.661 38.5493 238.416 38.304C238.17 38.0587 238.048 37.7653 238.048 37.424C238.048 37.072 238.17 36.7787 238.416 36.544C238.661 36.2987 238.954 36.176 239.296 36.176C239.648 36.176 239.941 36.2987 240.176 36.544C240.421 36.7787 240.544 37.072 240.544 37.424C240.544 37.7653 240.421 38.0587 240.176 38.304C239.941 38.5493 239.648 38.672 239.296 38.672ZM246.306 51.424C245.666 51.424 245.047 51.3547 244.45 51.216C243.853 51.088 243.314 50.9013 242.834 50.656L243.602 48.96C244.061 49.184 244.509 49.3493 244.946 49.456C245.383 49.5627 245.821 49.616 246.258 49.616C246.909 49.616 247.399 49.4773 247.73 49.2C248.071 48.9227 248.242 48.5067 248.242 47.952V47.296C247.559 47.7973 246.797 48.048 245.954 48.048C245.165 48.048 244.45 47.8613 243.81 47.488C243.181 47.104 242.674 46.5867 242.29 45.936C241.917 45.2853 241.73 44.5653 241.73 43.776C241.73 42.9867 241.917 42.272 242.29 41.632C242.674 40.992 243.191 40.4853 243.842 40.112C244.493 39.728 245.218 39.536 246.018 39.536C246.423 39.536 246.818 39.5947 247.202 39.712C247.586 39.8293 247.943 39.9947 248.274 40.208V39.664H250.434V47.984C250.434 49.0827 250.077 49.9307 249.362 50.528C248.658 51.1253 247.639 51.424 246.306 51.424ZM246.29 46.192C246.695 46.192 247.063 46.128 247.394 46C247.725 45.8613 248.007 45.6693 248.242 45.424V42.16C248.007 41.9253 247.719 41.744 247.378 41.616C247.047 41.4773 246.69 41.408 246.306 41.408C245.847 41.408 245.437 41.5147 245.074 41.728C244.711 41.9307 244.423 42.2133 244.21 42.576C243.997 42.928 243.89 43.328 243.89 43.776C243.89 44.2347 243.991 44.6453 244.194 45.008C244.407 45.3707 244.695 45.6587 245.058 45.872C245.431 46.0853 245.842 46.192 246.29 46.192ZM252.145 48V36.8L254.337 36.32V40.352C254.967 39.7867 255.745 39.504 256.673 39.504C257.324 39.504 257.895 39.648 258.385 39.936C258.887 40.2133 259.276 40.6027 259.553 41.104C259.831 41.5947 259.969 42.1707 259.969 42.832V48H257.777V43.152C257.777 42.608 257.623 42.1813 257.313 41.872C257.004 41.552 256.583 41.392 256.049 41.392C255.676 41.392 255.345 41.4667 255.057 41.616C254.769 41.7547 254.529 41.9573 254.337 42.224V48H252.145ZM265.347 48.128C264.419 48.128 263.715 47.92 263.235 47.504C262.766 47.0773 262.531 46.4587 262.531 45.648V41.488H260.819V39.664H262.531V37.536L264.723 37.04V39.664H267.107V41.488H264.723V45.2C264.723 45.584 264.809 45.8613 264.979 46.032C265.15 46.192 265.449 46.272 265.875 46.272C266.089 46.272 266.281 46.2613 266.451 46.24C266.633 46.208 266.83 46.1547 267.043 46.08V47.888C266.819 47.9627 266.537 48.0213 266.195 48.064C265.865 48.1067 265.582 48.128 265.347 48.128ZM271.395 48V39.664H273.587V48H271.395ZM272.483 38.672C272.142 38.672 271.849 38.5493 271.603 38.304C271.358 38.0587 271.235 37.7653 271.235 37.424C271.235 37.072 271.358 36.7787 271.603 36.544C271.849 36.2987 272.142 36.176 272.483 36.176C272.835 36.176 273.129 36.2987 273.363 36.544C273.609 36.7787 273.731 37.072 273.731 37.424C273.731 37.7653 273.609 38.0587 273.363 38.304C273.129 38.5493 272.835 38.672 272.483 38.672ZM276.582 48V41.488H274.726V39.664H276.582V38.864C276.582 37.9253 276.854 37.2107 277.398 36.72C277.942 36.2187 278.726 35.968 279.75 35.968C279.974 35.968 280.203 35.9787 280.438 36C280.672 36.0213 280.875 36.0587 281.046 36.112V37.952C280.843 37.9093 280.667 37.8773 280.518 37.856C280.368 37.8347 280.203 37.824 280.022 37.824C279.606 37.824 279.291 37.9147 279.078 38.096C278.875 38.2667 278.774 38.5387 278.774 38.912V39.664H281.046V41.488H278.774V48H276.582ZM286.227 51.44C286.035 51.44 285.848 51.4293 285.667 51.408C285.496 51.3973 285.352 51.3813 285.235 51.36V49.472C285.448 49.5147 285.704 49.536 286.003 49.536C286.803 49.536 287.358 49.1573 287.667 48.4L287.795 48.08L284.547 39.664H286.963L289.043 45.344L291.395 39.664H293.763L289.923 48.672C289.635 49.344 289.32 49.8827 288.979 50.288C288.638 50.6933 288.243 50.9867 287.795 51.168C287.358 51.3493 286.835 51.44 286.227 51.44ZM298.475 48.16C297.643 48.16 296.891 47.968 296.219 47.584C295.547 47.2 295.014 46.6827 294.619 46.032C294.224 45.3813 294.027 44.6507 294.027 43.84C294.027 43.0293 294.219 42.2987 294.603 41.648C294.998 40.9867 295.531 40.464 296.203 40.08C296.886 39.696 297.643 39.504 298.475 39.504C299.307 39.504 300.059 39.696 300.731 40.08C301.414 40.464 301.947 40.9867 302.331 41.648C302.726 42.2987 302.923 43.0293 302.923 43.84C302.923 44.6507 302.726 45.3813 302.331 46.032C301.947 46.6827 301.419 47.2 300.747 47.584C300.075 47.968 299.318 48.16 298.475 48.16ZM298.475 46.256C298.912 46.256 299.302 46.1493 299.643 45.936C299.995 45.7227 300.272 45.4347 300.475 45.072C300.688 44.6987 300.795 44.288 300.795 43.84C300.795 43.3813 300.688 42.9707 300.475 42.608C300.272 42.2453 299.995 41.9573 299.643 41.744C299.302 41.52 298.912 41.408 298.475 41.408C298.048 41.408 297.659 41.52 297.307 41.744C296.955 41.9573 296.678 42.2453 296.475 42.608C296.272 42.9707 296.171 43.3813 296.171 43.84C296.171 44.288 296.272 44.6987 296.475 45.072C296.678 45.4347 296.955 45.7227 297.307 45.936C297.659 46.1493 298.048 46.256 298.475 46.256ZM307.502 48.16C306.862 48.16 306.292 48.0213 305.79 47.744C305.3 47.456 304.91 47.0613 304.622 46.56C304.345 46.0587 304.206 45.4827 304.206 44.832V39.664H306.398V44.512C306.398 45.0453 306.553 45.472 306.862 45.792C307.182 46.112 307.609 46.272 308.142 46.272C308.505 46.272 308.83 46.2027 309.118 46.064C309.417 45.9147 309.662 45.7067 309.854 45.44V39.664H312.046V48H309.854V47.328C309.214 47.8827 308.43 48.16 307.502 48.16ZM182.864 69V57.8L185.056 57.432V69H182.864ZM186.77 69V60.664H188.962V69H186.77ZM187.858 59.672C187.517 59.672 187.224 59.5493 186.978 59.304C186.733 59.0587 186.61 58.7653 186.61 58.424C186.61 58.072 186.733 57.7787 186.978 57.544C187.224 57.2987 187.517 57.176 187.858 57.176C188.21 57.176 188.504 57.2987 188.738 57.544C188.984 57.7787 189.106 58.072 189.106 58.424C189.106 58.7653 188.984 59.0587 188.738 59.304C188.504 59.5493 188.21 59.672 187.858 59.672ZM190.677 69V57.8L192.869 57.432V64.168L196.469 60.664H198.949L195.013 64.488L199.189 69H196.389L192.869 65.192V69H190.677ZM203.132 69.16C202.3 69.16 201.542 68.968 200.86 68.584C200.188 68.2 199.654 67.6827 199.26 67.032C198.865 66.3813 198.668 65.6507 198.668 64.84C198.668 64.0293 198.854 63.2987 199.228 62.648C199.612 61.9973 200.129 61.48 200.78 61.096C201.43 60.712 202.156 60.52 202.956 60.52C203.756 60.52 204.465 60.7173 205.084 61.112C205.702 61.5067 206.188 62.04 206.54 62.712C206.902 63.384 207.084 64.1467 207.084 65V65.576H200.908C201.004 65.9067 201.158 66.2053 201.372 66.472C201.596 66.7387 201.868 66.9467 202.188 67.096C202.518 67.2453 202.87 67.32 203.244 67.32C203.617 67.32 203.958 67.2613 204.268 67.144C204.588 67.0267 204.86 66.8613 205.084 66.648L206.524 67.96C206.012 68.376 205.484 68.68 204.94 68.872C204.406 69.064 203.804 69.16 203.132 69.16ZM200.876 64.008H204.924C204.849 63.6773 204.71 63.3893 204.508 63.144C204.316 62.888 204.081 62.6907 203.804 62.552C203.537 62.4027 203.238 62.328 202.908 62.328C202.566 62.328 202.257 62.3973 201.98 62.536C201.702 62.6747 201.468 62.872 201.276 63.128C201.094 63.3733 200.961 63.6667 200.876 64.008ZM211.645 69V60.664H213.837V69H211.645ZM212.733 59.672C212.392 59.672 212.099 59.5493 211.853 59.304C211.608 59.0587 211.485 58.7653 211.485 58.424C211.485 58.072 211.608 57.7787 211.853 57.544C212.099 57.2987 212.392 57.176 212.733 57.176C213.085 57.176 213.379 57.2987 213.613 57.544C213.859 57.7787 213.981 58.072 213.981 58.424C213.981 58.7653 213.859 59.0587 213.613 59.304C213.379 59.5493 213.085 59.672 212.733 59.672ZM219.504 69.128C218.576 69.128 217.872 68.92 217.392 68.504C216.922 68.0773 216.688 67.4587 216.688 66.648V62.488H214.976V60.664H216.688V58.536L218.88 58.04V60.664H221.264V62.488H218.88V66.2C218.88 66.584 218.965 66.8613 219.136 67.032C219.306 67.192 219.605 67.272 220.032 67.272C220.245 67.272 220.437 67.2613 220.608 67.24C220.789 67.208 220.986 67.1547 221.2 67.08V68.888C220.976 68.9627 220.693 69.0213 220.352 69.064C220.021 69.1067 219.738 69.128 219.504 69.128Z" fill="white"/>
<defs>
<filter id="filter0_b_91_73" x="136.05" y="11" width="228.95" height="85" filterUnits="userSpaceOnUse" color-interpolation-filters="sRGB">
<feFlood flood-opacity="0" result="BackgroundImageFix"/>
<feGaussianBlur in="BackgroundImage" stdDeviation="3"/>
<feComposite in2="SourceAlpha" operator="in" result="effect1_backgroundBlur_91_73"/>
<feBlend mode="normal" in="SourceGraphic" in2="effect1_backgroundBlur_91_73" result="shape"/>
</filter>
</defs>
</svg>
