<svg width="373" height="125" viewBox="0 0 373 125" fill="none" xmlns="http://www.w3.org/2000/svg">
<path d="M310.671 6.59016C314.362 7.50336 316.893 9.28656 318.842 12.2722C319.961 14.0146 320.334 14.305 321.828 14.4706C322.782 14.5954 330.87 14.8858 339.83 15.1342C351.318 15.4246 356.338 15.715 356.919 16.0882C357.375 16.3366 357.956 17.167 358.205 17.9134C358.744 19.573 358.04 21.3142 356.505 22.0198C355.883 22.3102 349.619 22.8082 341.366 23.1814C333.609 23.5546 325.688 23.9698 323.738 24.0946L320.212 24.343L319.506 25.8778C318.801 27.3706 318.801 27.4546 320.626 34.1314C321.663 37.8226 322.492 40.8922 322.492 40.975C322.492 41.017 324.027 41.0578 325.893 41.0578C334.562 41.0998 338.668 45.247 340.824 56.197C341.571 60.013 341.736 62.419 341.778 68.2258V75.4846L338.709 83.365C333.773 96.0982 333.192 97.9654 333.483 100.37C333.898 103.688 335.308 110.781 336.635 116.007C337.299 118.662 337.838 121.193 337.838 121.649C337.838 123.391 334.851 124.553 333.731 123.224C333.15 122.519 330.248 111.155 329.376 106.177C329.003 104.103 328.713 101.117 328.713 99.457C328.713 96.3466 328.547 96.8854 335.432 77.3494L337.132 72.5794L336.884 66.7726C336.635 61.2562 335.514 54.1222 334.478 51.4258C333.606 49.2694 331.989 47.4442 330.206 46.6138C328.173 45.7018 324.15 45.535 324.15 46.3654C324.15 47.029 327.924 60.0946 328.878 62.791C329.252 63.7858 329.542 65.0302 329.542 65.5282C329.542 67.519 326.597 68.5978 325.311 67.063C324.191 65.7766 323.32 62.9146 317.057 40.2682C313.656 27.949 310.587 17.5798 310.214 17.1658C309.219 16.0462 307.061 15.4654 305.817 15.9214C304.365 16.4602 302.997 18.3274 302.997 19.7794C302.997 20.443 305.319 29.5678 308.182 40.1038C311.044 50.6386 313.367 59.7646 313.367 60.3442C313.367 60.9658 313.077 61.7134 312.746 62.0038C311.916 62.7094 310.132 62.6674 309.386 61.9618C309.095 61.6306 307.685 57.2746 306.358 52.2562C304.284 44.6242 303.704 42.9658 302.792 42.1774C300.551 40.2694 296.652 41.4718 296.156 44.293C295.99 45.1642 296.529 48.109 297.773 53.1694C298.81 57.2758 299.681 61.0918 299.681 61.5478C299.681 62.7502 297.981 63.787 296.571 63.4138C295.244 63.0826 295.244 63.0826 293.086 54.745C291.717 49.477 291.137 47.9014 290.307 47.155C288.938 45.9514 286.491 45.9106 285.039 47.0722C283.256 48.4822 283.256 50.0998 284.914 55.9486C286.696 62.1694 286.78 63.4138 285.411 64.285C284.622 64.8238 284.249 64.8238 283.379 64.4506C282.508 64.0774 282.052 63.2062 280.932 59.7634C279.647 55.8226 279.48 55.5322 277.988 54.7858C276.578 54.1222 276.245 54.0802 274.877 54.6202C273.798 54.9934 273.135 55.615 272.554 56.7358L271.808 58.3114L277.696 79.3414C281.097 91.4938 284.166 101.657 284.996 103.398C285.742 105.057 287.194 107.339 288.189 108.458C290.262 110.78 294.701 119.45 294.701 121.233C294.701 123.183 292.628 124.469 291.051 123.432C290.76 123.266 289.433 120.86 288.064 118.081C286.737 115.344 284.912 112.274 284.04 111.278C280.39 107.255 279.728 105.431 273.09 80.875C269.523 67.6438 267.615 59.8462 267.615 58.5598C267.656 55.9054 269.19 53.0014 271.389 51.4666C272.799 50.4718 273.712 50.1814 276.076 50.0146L279.063 49.7662L279.644 47.8162C280.805 43.7098 284.372 41.5114 289.184 41.8018L292.169 41.9674L293.206 40.3906C294.7 38.1514 297.478 36.6574 300.299 36.5746C301.544 36.5326 302.58 36.409 302.58 36.367C302.58 36.2842 302.29 35.2474 301.917 34.0858C301.419 32.3854 300.922 31.639 299.553 30.685C293.994 26.6206 292.336 19.4866 295.613 13.4302C298.475 8.00017 304.864 5.09736 310.671 6.59016ZM304.116 9.90817C298.019 12.1066 295.323 19.6966 298.766 25.0054C299.678 26.3746 299.762 25.9186 299.056 23.5954C297.77 19.3642 298.6 15.673 301.462 13.1842C303.412 11.4838 305.444 10.861 308.388 11.0686C312.578 11.359 315.149 13.723 316.476 18.451C317.471 21.8518 317.513 22.0186 317.846 21.5206C318.011 21.2302 323.943 20.815 333.898 20.359C349.866 19.6534 355.425 19.3222 355.134 19.0318C355.052 18.949 346.631 18.5758 336.387 18.2434C326.142 17.8702 317.722 17.5378 317.722 17.497C317.68 17.455 317.141 16.3774 316.56 15.0502C314.32 10.4062 308.969 8.20777 304.116 9.90817Z" fill="white"/>
<path d="M213 29C213 22.3726 207.627 17 201 17H26C19.3726 17 14 22.3726 14 29V78C14 84.6274 19.3726 90 26 90H201C207.627 90 213 84.6274 213 78V29Z" fill="white" fill-opacity="0.23"/>
<path d="M230.95 55.9998L212.915 43.0693L213.001 69.0499L230.95 55.9998Z" fill="white" fill-opacity="0.23"/>
<circle r="13" transform="matrix(-1 0 0 1 19 20)" fill="#5865F2"/>
<path d="M18.9999 32.8031C11.929 32.8031 6.19691 27.071 6.19691 20.0001C6.19691 12.9291 11.929 7.19702 18.9999 7.19702C26.0709 7.19702 31.803 12.9291 31.803 20.0001C31.803 27.071 26.0709 32.8031 18.9999 32.8031Z" stroke="white" stroke-width="2" stroke-linecap="round" stroke-linejoin="round"/>
<path d="M19 25.1212V20" stroke="white" stroke-width="2" stroke-linecap="round" stroke-linejoin="round"/>
<path d="M19 14.8787H18.9877" stroke="white" stroke-width="2" stroke-linecap="round" stroke-linejoin="round"/>
<path d="M44.008 49.16C43.1013 49.16 42.216 48.9947 41.352 48.664C40.488 48.3227 39.72 47.8427 39.048 47.224L40.376 45.56C41.0267 46.136 41.6507 46.552 42.248 46.808C42.856 47.064 43.496 47.192 44.168 47.192C44.6373 47.192 45.0427 47.1387 45.384 47.032C45.7253 46.9147 45.9867 46.7493 46.168 46.536C46.36 46.3227 46.456 46.072 46.456 45.784C46.456 45.4 46.3173 45.1067 46.04 44.904C45.7627 44.6907 45.288 44.5253 44.616 44.408L42.392 44.024C41.4427 43.864 40.7173 43.528 40.216 43.016C39.7253 42.504 39.48 41.8427 39.48 41.032C39.48 40.3387 39.656 39.736 40.008 39.224C40.3707 38.712 40.8773 38.3227 41.528 38.056C42.1893 37.7787 42.9733 37.64 43.88 37.64C44.7013 37.64 45.5173 37.7787 46.328 38.056C47.1493 38.3333 47.8747 38.7173 48.504 39.208L47.256 40.936C46.0827 40.04 44.904 39.592 43.72 39.592C43.304 39.592 42.9413 39.6453 42.632 39.752C42.3227 39.8587 42.0827 40.008 41.912 40.2C41.752 40.3813 41.672 40.6 41.672 40.856C41.672 41.1973 41.7947 41.464 42.04 41.656C42.2853 41.8373 42.696 41.976 43.272 42.072L45.384 42.424C46.504 42.6053 47.3413 42.9627 47.896 43.496C48.4507 44.0187 48.728 44.712 48.728 45.576C48.728 46.3013 48.536 46.936 48.152 47.48C47.768 48.0133 47.2187 48.4293 46.504 48.728C45.8 49.016 44.968 49.16 44.008 49.16ZM51.3074 49L49.0194 40.664H51.0994L52.4754 46.04L54.1394 40.664H55.9794L57.6274 46.056L59.0034 40.664H61.0514L58.7474 49H56.6514L55.0354 43.672L53.4194 49H51.3074ZM62.0828 49V40.664H64.2748V49H62.0828ZM63.1708 39.672C62.8294 39.672 62.5361 39.5493 62.2908 39.304C62.0454 39.0587 61.9228 38.7653 61.9228 38.424C61.9228 38.072 62.0454 37.7787 62.2908 37.544C62.5361 37.2987 62.8294 37.176 63.1708 37.176C63.5228 37.176 63.8161 37.2987 64.0508 37.544C64.2961 37.7787 64.4188 38.072 64.4188 38.424C64.4188 38.7653 64.2961 39.0587 64.0508 39.304C63.8161 39.5493 63.5228 39.672 63.1708 39.672ZM65.989 52.264V40.664H68.149V41.352C68.8317 40.8187 69.621 40.552 70.517 40.552C71.3063 40.552 72.021 40.744 72.661 41.128C73.301 41.512 73.8077 42.0293 74.181 42.68C74.565 43.32 74.757 44.04 74.757 44.84C74.757 45.64 74.565 46.3653 74.181 47.016C73.797 47.656 73.2797 48.168 72.629 48.552C71.9783 48.9253 71.253 49.112 70.453 49.112C70.037 49.112 69.637 49.0587 69.253 48.952C68.869 48.8347 68.5117 48.6693 68.181 48.456V52.264H65.989ZM70.165 47.256C70.6237 47.256 71.0343 47.1493 71.397 46.936C71.7703 46.7227 72.0637 46.4347 72.277 46.072C72.4903 45.7093 72.597 45.2987 72.597 44.84C72.597 44.3813 72.4903 43.9707 72.277 43.608C72.0637 43.2347 71.7703 42.9467 71.397 42.744C71.0343 42.5307 70.6237 42.424 70.165 42.424C69.7597 42.424 69.3863 42.4933 69.045 42.632C68.7143 42.76 68.4263 42.9573 68.181 43.224V46.472C68.4157 46.7173 68.7037 46.9093 69.045 47.048C69.397 47.1867 69.7703 47.256 70.165 47.256ZM80.1628 49.16C79.3308 49.16 78.5734 48.968 77.8908 48.584C77.2188 48.2 76.6854 47.6827 76.2908 47.032C75.8961 46.3813 75.6988 45.6507 75.6988 44.84C75.6988 44.0293 75.8854 43.2987 76.2588 42.648C76.6428 41.9973 77.1601 41.48 77.8108 41.096C78.4614 40.712 79.1868 40.52 79.9868 40.52C80.7868 40.52 81.4961 40.7173 82.1148 41.112C82.7334 41.5067 83.2188 42.04 83.5708 42.712C83.9334 43.384 84.1148 44.1467 84.1148 45V45.576H77.9388C78.0348 45.9067 78.1894 46.2053 78.4028 46.472C78.6268 46.7387 78.8988 46.9467 79.2188 47.096C79.5494 47.2453 79.9014 47.32 80.2748 47.32C80.6481 47.32 80.9894 47.2613 81.2988 47.144C81.6188 47.0267 81.8908 46.8613 82.1148 46.648L83.5548 47.96C83.0428 48.376 82.5148 48.68 81.9708 48.872C81.4374 49.064 80.8348 49.16 80.1628 49.16ZM77.9068 44.008H81.9548C81.8801 43.6773 81.7414 43.3893 81.5388 43.144C81.3468 42.888 81.1121 42.6907 80.8348 42.552C80.5681 42.4027 80.2694 42.328 79.9388 42.328C79.5974 42.328 79.2881 42.3973 79.0108 42.536C78.7334 42.6747 78.4988 42.872 78.3068 43.128C78.1254 43.3733 77.9921 43.6667 77.9068 44.008ZM88.6765 49V37.8L90.8685 37.432V49H88.6765ZM96.6628 49.16C95.8308 49.16 95.0734 48.968 94.3908 48.584C93.7188 48.2 93.1854 47.6827 92.7908 47.032C92.3961 46.3813 92.1988 45.6507 92.1988 44.84C92.1988 44.0293 92.3854 43.2987 92.7588 42.648C93.1428 41.9973 93.6601 41.48 94.3108 41.096C94.9614 40.712 95.6868 40.52 96.4868 40.52C97.2868 40.52 97.9961 40.7173 98.6148 41.112C99.2334 41.5067 99.7188 42.04 100.071 42.712C100.433 43.384 100.615 44.1467 100.615 45V45.576H94.4388C94.5348 45.9067 94.6894 46.2053 94.9028 46.472C95.1268 46.7387 95.3988 46.9467 95.7188 47.096C96.0494 47.2453 96.4014 47.32 96.7748 47.32C97.1481 47.32 97.4894 47.2613 97.7988 47.144C98.1188 47.0267 98.3908 46.8613 98.6148 46.648L100.055 47.96C99.5428 48.376 99.0148 48.68 98.4708 48.872C97.9374 49.064 97.3348 49.16 96.6628 49.16ZM94.4068 44.008H98.4548C98.3801 43.6773 98.2414 43.3893 98.0388 43.144C97.8468 42.888 97.6121 42.6907 97.3348 42.552C97.0681 42.4027 96.7694 42.328 96.4388 42.328C96.0974 42.328 95.7881 42.3973 95.5108 42.536C95.2334 42.6747 94.9988 42.872 94.8068 43.128C94.6254 43.3733 94.4921 43.6667 94.4068 44.008ZM103.003 49V42.488H101.147V40.664H103.003V39.864C103.003 38.9253 103.275 38.2107 103.819 37.72C104.363 37.2187 105.147 36.968 106.171 36.968C106.395 36.968 106.625 36.9787 106.859 37C107.094 37.0213 107.297 37.0587 107.467 37.112V38.952C107.265 38.9093 107.089 38.8773 106.939 38.856C106.79 38.8347 106.625 38.824 106.443 38.824C106.027 38.824 105.713 38.9147 105.499 39.096C105.297 39.2667 105.195 39.5387 105.195 39.912V40.664H107.467V42.488H105.195V49H103.003ZM112.613 49.128C111.685 49.128 110.981 48.92 110.501 48.504C110.032 48.0773 109.797 47.4587 109.797 46.648V42.488H108.085V40.664H109.797V38.536L111.989 38.04V40.664H114.373V42.488H111.989V46.2C111.989 46.584 112.074 46.8613 112.245 47.032C112.416 47.192 112.714 47.272 113.141 47.272C113.354 47.272 113.546 47.2613 113.717 47.24C113.898 47.208 114.096 47.1547 114.309 47.08V48.888C114.085 48.9627 113.802 49.0213 113.461 49.064C113.13 49.1067 112.848 49.128 112.613 49.128ZM118.661 49V40.664H120.853V49H118.661ZM119.749 39.672C119.408 39.672 119.114 39.5493 118.869 39.304C118.624 39.0587 118.501 38.7653 118.501 38.424C118.501 38.072 118.624 37.7787 118.869 37.544C119.114 37.2987 119.408 37.176 119.749 37.176C120.101 37.176 120.394 37.2987 120.629 37.544C120.874 37.7787 120.997 38.072 120.997 38.424C120.997 38.7653 120.874 39.0587 120.629 39.304C120.394 39.5493 120.101 39.672 119.749 39.672ZM123.847 49V42.488H121.991V40.664H123.847V39.864C123.847 38.9253 124.119 38.2107 124.663 37.72C125.207 37.2187 125.991 36.968 127.015 36.968C127.239 36.968 127.468 36.9787 127.703 37C127.938 37.0213 128.14 37.0587 128.311 37.112V38.952C128.108 38.9093 127.932 38.8773 127.783 38.856C127.634 38.8347 127.468 38.824 127.287 38.824C126.871 38.824 126.556 38.9147 126.343 39.096C126.14 39.2667 126.039 39.5387 126.039 39.912V40.664H128.311V42.488H126.039V49H123.847ZM133.493 52.44C133.301 52.44 133.114 52.4293 132.933 52.408C132.762 52.3973 132.618 52.3813 132.501 52.36V50.472C132.714 50.5147 132.97 50.536 133.269 50.536C134.069 50.536 134.623 50.1573 134.933 49.4L135.061 49.08L131.812 40.664H134.229L136.309 46.344L138.661 40.664H141.029L137.189 49.672C136.901 50.344 136.586 50.8827 136.245 51.288C135.903 51.6933 135.509 51.9867 135.061 52.168C134.623 52.3493 134.101 52.44 133.493 52.44ZM145.741 49.16C144.909 49.16 144.157 48.968 143.485 48.584C142.813 48.2 142.279 47.6827 141.885 47.032C141.49 46.3813 141.293 45.6507 141.293 44.84C141.293 44.0293 141.485 43.2987 141.868 42.648C142.263 41.9867 142.797 41.464 143.469 41.08C144.151 40.696 144.909 40.504 145.741 40.504C146.573 40.504 147.325 40.696 147.997 41.08C148.679 41.464 149.213 41.9867 149.597 42.648C149.991 43.2987 150.189 44.0293 150.189 44.84C150.189 45.6507 149.991 46.3813 149.597 47.032C149.213 47.6827 148.685 48.2 148.013 48.584C147.341 48.968 146.583 49.16 145.741 49.16ZM145.741 47.256C146.178 47.256 146.567 47.1493 146.909 46.936C147.261 46.7227 147.538 46.4347 147.741 46.072C147.954 45.6987 148.061 45.288 148.061 44.84C148.061 44.3813 147.954 43.9707 147.741 43.608C147.538 43.2453 147.261 42.9573 146.909 42.744C146.567 42.52 146.178 42.408 145.741 42.408C145.314 42.408 144.925 42.52 144.573 42.744C144.221 42.9573 143.943 43.2453 143.741 43.608C143.538 43.9707 143.437 44.3813 143.437 44.84C143.437 45.288 143.538 45.6987 143.741 46.072C143.943 46.4347 144.221 46.7227 144.573 46.936C144.925 47.1493 145.314 47.256 145.741 47.256ZM154.768 49.16C154.128 49.16 153.557 49.0213 153.056 48.744C152.565 48.456 152.176 48.0613 151.888 47.56C151.611 47.0587 151.472 46.4827 151.472 45.832V40.664H153.664V45.512C153.664 46.0453 153.819 46.472 154.128 46.792C154.448 47.112 154.875 47.272 155.408 47.272C155.771 47.272 156.096 47.2027 156.384 47.064C156.683 46.9147 156.928 46.7067 157.12 46.44V40.664H159.312V49H157.12V48.328C156.48 48.8827 155.696 49.16 154.768 49.16ZM43.72 70.112C42.9307 70.112 42.216 69.92 41.576 69.536C40.936 69.152 40.424 68.64 40.04 68C39.6667 67.3493 39.48 66.624 39.48 65.824C39.48 65.024 39.6667 64.304 40.04 63.664C40.424 63.0133 40.9413 62.5013 41.592 62.128C42.2427 61.744 42.9733 61.552 43.784 61.552C44.2 61.552 44.6 61.6107 44.984 61.728C45.368 61.8347 45.7253 61.9947 46.056 62.208V58.8L48.248 58.432V70H46.088V69.312C45.4053 69.8453 44.616 70.112 43.72 70.112ZM44.072 68.24C44.4773 68.24 44.8453 68.176 45.176 68.048C45.5173 67.9093 45.8107 67.7067 46.056 67.44V64.192C45.8107 63.9467 45.5173 63.7547 45.176 63.616C44.8347 63.4773 44.4667 63.408 44.072 63.408C43.6133 63.408 43.1973 63.5147 42.824 63.728C42.4613 63.9307 42.1733 64.2187 41.96 64.592C41.7467 64.9547 41.64 65.3653 41.64 65.824C41.64 66.2827 41.7467 66.6933 41.96 67.056C42.1733 67.4187 42.4613 67.7067 42.824 67.92C43.1973 68.1333 43.6133 68.24 44.072 68.24ZM54.0218 70.16C53.1898 70.16 52.4378 69.968 51.7658 69.584C51.0938 69.2 50.5604 68.6827 50.1658 68.032C49.7711 67.3813 49.5738 66.6507 49.5738 65.84C49.5738 65.0293 49.7658 64.2987 50.1497 63.648C50.5444 62.9867 51.0778 62.464 51.7498 62.08C52.4324 61.696 53.1898 61.504 54.0218 61.504C54.8538 61.504 55.6058 61.696 56.2778 62.08C56.9604 62.464 57.4938 62.9867 57.8778 63.648C58.2724 64.2987 58.4698 65.0293 58.4698 65.84C58.4698 66.6507 58.2724 67.3813 57.8778 68.032C57.4938 68.6827 56.9658 69.2 56.2938 69.584C55.6218 69.968 54.8644 70.16 54.0218 70.16ZM54.0218 68.256C54.4591 68.256 54.8484 68.1493 55.1898 67.936C55.5418 67.7227 55.8191 67.4347 56.0218 67.072C56.2351 66.6987 56.3418 66.288 56.3418 65.84C56.3418 65.3813 56.2351 64.9707 56.0218 64.608C55.8191 64.2453 55.5418 63.9573 55.1898 63.744C54.8484 63.52 54.4591 63.408 54.0218 63.408C53.5951 63.408 53.2058 63.52 52.8538 63.744C52.5018 63.9573 52.2244 64.2453 52.0218 64.608C51.8191 64.9707 51.7178 65.3813 51.7178 65.84C51.7178 66.288 51.8191 66.6987 52.0218 67.072C52.2244 67.4347 52.5018 67.7227 52.8538 67.936C53.2058 68.1493 53.5951 68.256 54.0218 68.256ZM59.8171 70V61.664H62.0091V62.352C62.6385 61.7867 63.4171 61.504 64.3451 61.504C64.9958 61.504 65.5665 61.648 66.0571 61.936C66.5585 62.2133 66.9478 62.6027 67.2251 63.104C67.5025 63.5947 67.6411 64.1707 67.6411 64.832V70H65.4491V65.152C65.4491 64.608 65.2945 64.1813 64.9851 63.872C64.6758 63.552 64.2545 63.392 63.7211 63.392C63.3478 63.392 63.0171 63.4667 62.7291 63.616C62.4411 63.7547 62.2011 63.9573 62.0091 64.224V70H59.8171ZM73.0191 70.128C72.0911 70.128 71.3871 69.92 70.9071 69.504C70.4378 69.0773 70.2031 68.4587 70.2031 67.648V63.488H68.4911V61.664H70.2031V59.536L72.3951 59.04V61.664H74.7791V63.488H72.3951V67.2C72.3951 67.584 72.4805 67.8613 72.6511 68.032C72.8218 68.192 73.1205 68.272 73.5471 68.272C73.7605 68.272 73.9525 68.2613 74.1231 68.24C74.3045 68.208 74.5018 68.1547 74.7151 68.08V69.888C74.4911 69.9627 74.2085 70.0213 73.8671 70.064C73.5365 70.1067 73.2538 70.128 73.0191 70.128ZM79.0671 70V58.8L81.2591 58.432V70H79.0671ZM82.9734 70V61.664H85.1654V70H82.9734ZM84.0614 60.672C83.72 60.672 83.4267 60.5493 83.1814 60.304C82.936 60.0587 82.8134 59.7653 82.8134 59.424C82.8134 59.072 82.936 58.7787 83.1814 58.544C83.4267 58.2987 83.72 58.176 84.0614 58.176C84.4134 58.176 84.7067 58.2987 84.9414 58.544C85.1867 58.7787 85.3094 59.072 85.3094 59.424C85.3094 59.7653 85.1867 60.0587 84.9414 60.304C84.7067 60.5493 84.4134 60.672 84.0614 60.672ZM86.8796 70V58.8L89.0716 58.432V65.168L92.6716 61.664H95.1516L91.2156 65.488L95.3916 70H92.5916L89.0716 66.192V70H86.8796ZM99.3346 70.16C98.5026 70.16 97.7453 69.968 97.0626 69.584C96.3906 69.2 95.8573 68.6827 95.4626 68.032C95.068 67.3813 94.8706 66.6507 94.8706 65.84C94.8706 65.0293 95.0573 64.2987 95.4306 63.648C95.8146 62.9973 96.332 62.48 96.9826 62.096C97.6333 61.712 98.3586 61.52 99.1586 61.52C99.9586 61.52 100.668 61.7173 101.287 62.112C101.905 62.5067 102.391 63.04 102.743 63.712C103.105 64.384 103.287 65.1467 103.287 66V66.576H97.1106C97.2066 66.9067 97.3613 67.2053 97.5746 67.472C97.7986 67.7387 98.0706 67.9467 98.3906 68.096C98.7213 68.2453 99.0733 68.32 99.4466 68.32C99.82 68.32 100.161 68.2613 100.471 68.144C100.791 68.0267 101.063 67.8613 101.287 67.648L102.727 68.96C102.215 69.376 101.687 69.68 101.143 69.872C100.609 70.064 100.007 70.16 99.3346 70.16ZM97.0786 65.008H101.127C101.052 64.6773 100.913 64.3893 100.711 64.144C100.519 63.888 100.284 63.6907 100.007 63.552C99.74 63.4027 99.4413 63.328 99.1106 63.328C98.7693 63.328 98.46 63.3973 98.1826 63.536C97.9053 63.6747 97.6706 63.872 97.4786 64.128C97.2973 64.3733 97.164 64.6667 97.0786 65.008ZM107.848 70V61.664H110.04V70H107.848ZM108.936 60.672C108.595 60.672 108.302 60.5493 108.056 60.304C107.811 60.0587 107.688 59.7653 107.688 59.424C107.688 59.072 107.811 58.7787 108.056 58.544C108.302 58.2987 108.595 58.176 108.936 58.176C109.288 58.176 109.582 58.2987 109.816 58.544C110.062 58.7787 110.184 59.072 110.184 59.424C110.184 59.7653 110.062 60.0587 109.816 60.304C109.582 60.5493 109.288 60.672 108.936 60.672ZM115.707 70.128C114.779 70.128 114.075 69.92 113.595 69.504C113.125 69.0773 112.891 68.4587 112.891 67.648V63.488H111.179V61.664H112.891V59.536L115.083 59.04V61.664H117.467V63.488H115.083V67.2C115.083 67.584 115.168 67.8613 115.339 68.032C115.509 68.192 115.808 68.272 116.235 68.272C116.448 68.272 116.64 68.2613 116.811 68.24C116.992 68.208 117.189 68.1547 117.403 68.08V69.888C117.179 69.9627 116.896 70.0213 116.555 70.064C116.224 70.1067 115.941 70.128 115.707 70.128Z" fill="white"/>
</svg>
